<svg width="24" height="24" viewBox="0 0 24 24" fill="none" xmlns="http://www.w3.org/2000/svg">
  <circle cx="12" cy="12" r="10" fill="#F7931A"/>
  <path d="M15.55 10.15C15.82 9.89 15.99 9.53 15.99 9.14C15.99 8.22 15.26 7.49 14.34 7.49H10.5V11.5H14.34C15.26 11.5 15.99 10.77 15.99 9.85C15.99 9.46 15.82 9.1 15.55 8.84V10.15Z" fill="white"/>
  <path d="M14.34 13H10.5V17H14.34C15.26 17 15.99 16.27 15.99 15.35C15.99 14.43 15.26 13.7 14.34 13.7V13Z" fill="white"/>
  <path d="M11.75 6.5V7.5H12.75V6.5H11.75Z" fill="white"/>
  <path d="M11.75 17.5V18.5H12.75V17.5H11.75Z" fill="white"/>
</svg> 